<?xml version="1.0" encoding="UTF-8"?>
<svg xmlns="http://www.w3.org/2000/svg" xmlns:xlink="http://www.w3.org/1999/xlink" width="40pt" height="40pt" viewBox="0 0 50 50" version="1.1">
<g id="surface1">
<path style=" stroke:none;fill-rule:nonzero;fill:rgb(7.45098%,7.45098%,7.45098%);fill-opacity:1;" d="M 34.855469 2.289062 L 31.972656 2.289062 L 34.972656 5.542969 L 34.972656 7.09375 L 28.792969 7.09375 L 28.792969 5.277344 L 31.792969 5.277344 L 28.792969 2.023438 L 28.792969 0.472656 L 34.855469 0.472656 Z M 27.570312 2.289062 L 24.683594 2.289062 L 27.683594 5.542969 L 27.683594 7.09375 L 21.507812 7.09375 L 21.507812 5.277344 L 24.503906 5.277344 L 21.507812 2.023438 L 21.507812 0.472656 L 27.570312 0.472656 Z M 20.351562 2.363281 L 17.238281 2.363281 L 17.238281 5.203125 L 20.351562 5.203125 L 20.351562 7.09375 L 15.027344 7.09375 L 15.027344 0.472656 L 20.351562 0.472656 Z M 20.351562 2.363281 "/>
<path style=" stroke:none;fill-rule:nonzero;fill:rgb(8.235294%,44.705882%,71.372549%);fill-opacity:1;" d="M 10.785156 45.589844 L 7.625 10.113281 L 42.375 10.113281 L 39.210938 45.582031 L 24.980469 49.527344 Z M 10.785156 45.589844 "/>
<path style=" stroke:none;fill-rule:nonzero;fill:rgb(20%,66.27451%,86.27451%);fill-opacity:1;" d="M 25 46.511719 L 36.5 43.324219 L 39.207031 13.015625 L 25 13.015625 Z M 25 46.511719 "/>
<path style=" stroke:none;fill-rule:nonzero;fill:rgb(100%,100%,100%);fill-opacity:1;" d="M 25 25.867188 L 30.757812 25.867188 L 31.15625 21.414062 L 25 21.414062 L 25 17.0625 L 35.910156 17.0625 L 35.804688 18.226562 L 34.738281 30.21875 L 25 30.21875 Z M 25 25.867188 "/>
<path style=" stroke:none;fill-rule:nonzero;fill:rgb(92.156863%,92.156863%,92.156863%);fill-opacity:1;" d="M 25.027344 37.167969 L 25.007812 37.171875 L 20.160156 35.863281 L 19.851562 32.394531 L 15.484375 32.394531 L 16.09375 39.226562 L 25.007812 41.699219 L 25.027344 41.691406 Z M 25.027344 37.167969 "/>
<path style=" stroke:none;fill-rule:nonzero;fill:rgb(100%,100%,100%);fill-opacity:1;" d="M 30.386719 30.035156 L 29.863281 35.859375 L 25.011719 37.167969 L 25.011719 41.695312 L 33.929688 39.222656 L 33.996094 38.488281 L 34.753906 30.035156 Z M 30.386719 30.035156 "/>
<path style=" stroke:none;fill-rule:nonzero;fill:rgb(92.156863%,92.156863%,92.156863%);fill-opacity:1;" d="M 25.015625 17.0625 L 25.015625 21.410156 L 14.507812 21.410156 L 14.417969 20.433594 L 14.21875 18.226562 L 14.117188 17.0625 Z M 25 25.867188 L 25 30.21875 L 20.214844 30.21875 L 20.128906 29.242188 L 19.929688 27.035156 L 19.828125 25.867188 Z M 25 25.867188 "/>
</g>
</svg>
