<?xml version="1.0" encoding="UTF-8"?>
<svg xmlns="http://www.w3.org/2000/svg" xmlns:xlink="http://www.w3.org/1999/xlink" width="40pt" height="40pt" viewBox="0 0 50 50" version="1.1">
<g id="surface1">
<path style=" stroke:none;fill-rule:nonzero;fill:rgb(89.411765%,30.196078%,14.901961%);fill-opacity:1;" d="M 10.878906 45.449219 L 7.738281 10.210938 L 42.261719 10.210938 L 39.117188 45.445312 L 24.980469 49.363281 Z M 10.878906 45.449219 "/>
<path style=" stroke:none;fill-rule:nonzero;fill:rgb(94.509804%,39.607843%,16.078431%);fill-opacity:1;" d="M 25 46.367188 L 36.421875 43.203125 L 39.109375 13.09375 L 25 13.09375 Z M 25 46.367188 "/>
<path style=" stroke:none;fill-rule:nonzero;fill:rgb(92.156863%,92.156863%,92.156863%);fill-opacity:1;" d="M 25 26.164062 L 19.28125 26.164062 L 18.886719 21.738281 L 25 21.738281 L 25 17.414062 L 14.164062 17.414062 L 14.265625 18.574219 L 15.328125 30.484375 L 25 30.484375 Z M 25 37.386719 L 24.980469 37.390625 L 20.167969 36.09375 L 19.859375 32.644531 L 15.523438 32.644531 L 16.125 39.429688 L 24.980469 41.890625 L 25 41.882812 Z M 25 37.386719 "/>
<path style=" stroke:none;fill-rule:nonzero;fill:rgb(0%,0%,0%);fill-opacity:1;" d="M 10.949219 0.636719 L 13.148438 0.636719 L 13.148438 2.804688 L 15.15625 2.804688 L 15.15625 0.636719 L 17.351562 0.636719 L 17.351562 7.207031 L 15.15625 7.207031 L 15.15625 5.007812 L 13.148438 5.007812 L 13.148438 7.207031 L 10.949219 7.207031 Z M 20.242188 2.816406 L 18.308594 2.816406 L 18.308594 0.636719 L 24.371094 0.636719 L 24.371094 2.816406 L 22.4375 2.816406 L 22.4375 7.207031 L 20.242188 7.207031 Z M 25.332031 0.636719 L 27.625 0.636719 L 29.03125 2.945312 L 30.441406 0.636719 L 32.730469 0.636719 L 32.730469 7.207031 L 30.542969 7.207031 L 30.542969 3.949219 L 29.03125 6.285156 L 28.996094 6.285156 L 27.484375 3.949219 L 27.484375 7.207031 L 25.332031 7.207031 Z M 33.824219 0.636719 L 36.023438 0.636719 L 36.023438 5.035156 L 39.109375 5.035156 L 39.109375 7.207031 L 33.824219 7.207031 Z M 33.824219 0.636719 "/>
<path style=" stroke:none;fill-rule:nonzero;fill:rgb(100%,100%,100%);fill-opacity:1;" d="M 24.984375 26.164062 L 24.984375 30.484375 L 30.308594 30.484375 L 29.804688 36.089844 L 24.984375 37.390625 L 24.984375 41.886719 L 33.84375 39.429688 L 33.910156 38.703125 L 34.925781 27.324219 L 35.03125 26.164062 Z M 24.984375 17.414062 L 24.984375 21.738281 L 35.425781 21.738281 L 35.511719 20.765625 L 35.707031 18.574219 L 35.8125 17.414062 Z M 24.984375 17.414062 "/>
</g>
</svg>
